<?xml version="1.0" encoding="UTF-8" standalone="yes"?>
<!DOCTYPE svg PUBLIC "-//W3C//DTD SVG 1.0//EN" "http://www.w3.org/TR/2001/REC-SVG-20010904/DTD/svg10.dtd">
<svg height="2000" width="2000" xmlns="http://www.w3.org/2000/svg" xmlns:svg="http://www.w3.org/2000/svg" xmlns:xlink="http://www.w3.org/1999/xlink">
   <marker id="endArrow" markerHeight="8" markerUnits="strokeWidth" markerWidth="10" orient="auto" refX="1" refY="5" viewBox="0 0 10 10">
      <polyline fill="darkblue" points="0,0 10,5 0,10 1,5" />
   </marker>
   <path d="M 982.11 982.11 17.8904 982.11 17.8904 870.074 982.11 870.074 z " style="fill: gold; stroke: black; stroke-width: 0.000000; fill-type: evenodd"  fill-opacity="1.000000" />
   <path d="M 982.11 982.11 17.8904 982.11 17.8904 870.074 982.11 870.074 z" style="fill: none; stroke: black; stroke-width: 2.000000; fill-type: evenodd"  fill-opacity="1.000000" />
   <path d="M 982.11 629.926 17.8904 629.926 17.8904 370.074 982.11 370.074 z " style="fill: gold; stroke: black; stroke-width: 0.000000; fill-type: evenodd"  fill-opacity="1.000000" />
   <path d="M 982.11 629.926 17.8904 629.926 17.8904 370.074 982.11 370.074 z" style="fill: none; stroke: black; stroke-width: 2.000000; fill-type: evenodd"  fill-opacity="1.000000" />
   <path d="M 982.11 129.926 17.8904 129.926 17.8904 17.8904 982.11 17.8904 z " style="fill: gold; stroke: black; stroke-width: 0.000000; fill-type: evenodd"  fill-opacity="1.000000" />
   <path d="M 982.11 129.926 17.8904 129.926 17.8904 17.8904 982.11 17.8904 z" style="fill: none; stroke: black; stroke-width: 2.000000; fill-type: evenodd"  fill-opacity="1.000000" />
   <path d="M 982.11 705.482 982.11 705.482 982.11 705.482 982.11 705.482 982.11 794.518 982.11 794.518 982.11 794.518 982.11 794.518 982.11 870.074 17.8903 870.074 17.8903 794.518 17.8902 794.518 17.8902 794.518 17.8903 794.518 17.8903 705.482 17.8902 705.482 17.8902 705.482 17.8903 705.482 17.8903 629.926 982.11 629.926 z " style="fill: lightblue; stroke: black; stroke-width: 0.000000; fill-type: evenodd"  fill-opacity="1.000000" />
   <path d="M 982.11 705.482 982.11 705.482 982.11 705.482 982.11 705.482 982.11 794.518 982.11 794.518 982.11 794.518 982.11 794.518 982.11 870.074 17.8903 870.074 17.8903 794.518 17.8902 794.518 17.8902 794.518 17.8903 794.518 17.8903 705.482 17.8902 705.482 17.8902 705.482 17.8903 705.482 17.8903 629.926 982.11 629.926 z" style="fill: none; stroke: black; stroke-width: 2.000000; fill-type: evenodd"  fill-opacity="1.000000" />
   <path d="M 982.11 205.482 982.11 205.482 982.11 205.482 982.11 205.482 982.11 294.518 982.11 294.518 982.11 294.518 982.11 294.518 982.11 370.074 17.8903 370.074 17.8903 294.518 17.8902 294.518 17.8902 294.518 17.8903 294.518 17.8903 205.482 17.8902 205.482 17.8902 205.482 17.8903 205.482 17.8903 129.926 982.11 129.926 z " style="fill: lightblue; stroke: black; stroke-width: 0.000000; fill-type: evenodd"  fill-opacity="1.000000" />
   <path d="M 982.11 205.482 982.11 205.482 982.11 205.482 982.11 205.482 982.11 294.518 982.11 294.518 982.11 294.518 982.11 294.518 982.11 370.074 17.8903 370.074 17.8903 294.518 17.8902 294.518 17.8902 294.518 17.8903 294.518 17.8903 205.482 17.8902 205.482 17.8902 205.482 17.8903 205.482 17.8903 129.926 982.11 129.926 z" style="fill: none; stroke: black; stroke-width: 2.000000; fill-type: evenodd"  fill-opacity="1.000000" />
</svg>
