<?xml version="1.0" encoding="UTF-8" standalone="yes"?>
<!DOCTYPE svg PUBLIC "-//W3C//DTD SVG 1.0//EN" "http://www.w3.org/TR/2001/REC-SVG-20010904/DTD/svg10.dtd">
<svg height="2000" width="2000" xmlns="http://www.w3.org/2000/svg" xmlns:svg="http://www.w3.org/2000/svg" xmlns:xlink="http://www.w3.org/1999/xlink">
   <marker id="endArrow" markerHeight="8" markerUnits="strokeWidth" markerWidth="10" orient="auto" refX="1" refY="5" viewBox="0 0 10 10">
      <polyline fill="darkblue" points="0,0 10,5 0,10 1,5" />
   </marker>
   <path d="M 982.11 825.097 17.8904 825.097 17.8904 674.903 982.11 674.903 z " style="fill: brown; stroke: black; stroke-width: 0.000000; fill-type: evenodd"  fill-opacity="1.000000" />
   <path d="M 982.11 825.097 17.8904 825.097 17.8904 674.903 982.11 674.903 z" style="fill: none; stroke: black; stroke-width: 2.000000; fill-type: evenodd"  fill-opacity="1.000000" />
   <path d="M 982.11 325.097 17.8904 325.097 17.8904 174.903 982.11 174.903 z " style="fill: brown; stroke: black; stroke-width: 0.000000; fill-type: evenodd"  fill-opacity="1.000000" />
   <path d="M 982.11 325.097 17.8904 325.097 17.8904 174.903 982.11 174.903 z" style="fill: none; stroke: black; stroke-width: 2.000000; fill-type: evenodd"  fill-opacity="1.000000" />
   <path d="M 982.11 846.097 982.11 846.097 982.11 851.38 17.8903 851.38 17.8903 846.097 17.8904 846.097 17.8904 825.097 982.11 825.097 z " style="fill: lightblue; stroke: black; stroke-width: 0.000000; fill-type: evenodd"  fill-opacity="1.000000" />
   <path d="M 982.11 846.097 982.11 846.097 982.11 851.38 17.8903 851.38 17.8903 846.097 17.8904 846.097 17.8904 825.097 982.11 825.097 z" style="fill: none; stroke: black; stroke-width: 2.000000; fill-type: evenodd"  fill-opacity="1.000000" />
   <path d="M 982.11 653.903 982.11 653.903 982.11 674.903 17.8904 674.903 17.8904 653.903 17.8903 653.903 17.8903 648.62 982.11 648.62 z " style="fill: lightblue; stroke: black; stroke-width: 0.000000; fill-type: evenodd"  fill-opacity="1.000000" />
   <path d="M 982.11 653.903 982.11 653.903 982.11 674.903 17.8904 674.903 17.8904 653.903 17.8903 653.903 17.8903 648.62 982.11 648.62 z" style="fill: none; stroke: black; stroke-width: 2.000000; fill-type: evenodd"  fill-opacity="1.000000" />
   <path d="M 982.11 346.097 982.11 346.097 982.11 351.38 17.8903 351.38 17.8903 346.097 17.8904 346.097 17.8904 325.097 982.11 325.097 z " style="fill: lightblue; stroke: black; stroke-width: 0.000000; fill-type: evenodd"  fill-opacity="1.000000" />
   <path d="M 982.11 346.097 982.11 346.097 982.11 351.38 17.8903 351.38 17.8903 346.097 17.8904 346.097 17.8904 325.097 982.11 325.097 z" style="fill: none; stroke: black; stroke-width: 2.000000; fill-type: evenodd"  fill-opacity="1.000000" />
   <path d="M 982.11 153.903 982.11 153.903 982.11 174.903 17.8904 174.903 17.8904 153.903 17.8903 153.903 17.8903 148.62 982.11 148.62 z " style="fill: lightblue; stroke: black; stroke-width: 0.000000; fill-type: evenodd"  fill-opacity="1.000000" />
   <path d="M 982.11 153.903 982.11 153.903 982.11 174.903 17.8904 174.903 17.8904 153.903 17.8903 153.903 17.8903 148.62 982.11 148.62 z" style="fill: none; stroke: black; stroke-width: 2.000000; fill-type: evenodd"  fill-opacity="1.000000" />
</svg>
