<?xml version="1.0" encoding="UTF-8" standalone="yes"?>
<!DOCTYPE svg PUBLIC "-//W3C//DTD SVG 1.0//EN" "http://www.w3.org/TR/2001/REC-SVG-20010904/DTD/svg10.dtd">
<svg height="2000" width="2000" xmlns="http://www.w3.org/2000/svg" xmlns:svg="http://www.w3.org/2000/svg" xmlns:xlink="http://www.w3.org/1999/xlink">
   <marker id="endArrow" markerHeight="8" markerUnits="strokeWidth" markerWidth="10" orient="auto" refX="1" refY="5" viewBox="0 0 10 10">
      <polyline fill="darkblue" points="0,0 10,5 0,10 1,5" />
   </marker>
   <path d="M 979.17 17.8905 979.17 17.8905 979.17 17.8904 998.11 17.8904 998.11 998.11 979.17 998.11 979.17 998.109 979.17 998.109 979.17 998.11 855.057 998.11 855.057 17.8904 979.17 17.8904 z " style="fill: lightblue; stroke: black; stroke-width: 0.000000; fill-type: evenodd"  fill-opacity="1.000000" />
   <path d="M 979.17 17.8905 979.17 17.8905 979.17 17.8904 998.11 17.8904 998.11 998.11 979.17 998.11 979.17 998.109 979.17 998.109 979.17 998.11 855.057 998.11 855.057 17.8904 979.17 17.8904 z" style="fill: none; stroke: black; stroke-width: 2.000000; fill-type: evenodd"  fill-opacity="1.000000" />
   <path d="M 855.057 998.11 728.383 998.11 728.383 17.8904 855.057 17.8904 z " style="fill: lightgreen; stroke: black; stroke-width: 0.000000; fill-type: evenodd"  fill-opacity="1.000000" />
   <path d="M 855.057 998.11 728.383 998.11 728.383 17.8904 855.057 17.8904 z" style="fill: none; stroke: black; stroke-width: 2.000000; fill-type: evenodd"  fill-opacity="1.000000" />
</svg>
