<?xml version="1.0" encoding="UTF-8" standalone="yes"?>
<!DOCTYPE svg PUBLIC "-//W3C//DTD SVG 1.0//EN" "http://www.w3.org/TR/2001/REC-SVG-20010904/DTD/svg10.dtd">
<svg height="2000" width="2000" xmlns="http://www.w3.org/2000/svg" xmlns:svg="http://www.w3.org/2000/svg" xmlns:xlink="http://www.w3.org/1999/xlink">
   <marker id="endArrow" markerHeight="8" markerUnits="strokeWidth" markerWidth="10" orient="auto" refX="1" refY="5" viewBox="0 0 10 10">
      <polyline fill="darkblue" points="0,0 10,5 0,10 1,5" />
   </marker>
   <path d="M 982.11 793.175 17.8904 793.175 17.8904 706.825 982.11 706.825 z " style="fill: brown; stroke: black; stroke-width: 0.000000; fill-type: evenodd"  fill-opacity="1.000000" />
   <path d="M 982.11 793.175 17.8904 793.175 17.8904 706.825 982.11 706.825 z" style="fill: none; stroke: black; stroke-width: 2.000000; fill-type: evenodd"  fill-opacity="1.000000" />
   <path d="M 982.11 293.175 17.8904 293.175 17.8904 206.825 982.11 206.825 z " style="fill: brown; stroke: black; stroke-width: 0.000000; fill-type: evenodd"  fill-opacity="1.000000" />
   <path d="M 982.11 293.175 17.8904 293.175 17.8904 206.825 982.11 206.825 z" style="fill: none; stroke: black; stroke-width: 2.000000; fill-type: evenodd"  fill-opacity="1.000000" />
   <path d="M 982.11 814.175 982.11 814.175 982.11 826.53 982.11 826.53 982.11 826.53 982.11 826.53 982.11 828.207 17.8903 828.207 17.8903 826.53 17.8902 826.53 17.8902 826.53 17.8903 826.53 17.8903 814.175 17.8904 814.175 17.8904 805.53 982.11 805.53 z " style="fill: lightblue; stroke: black; stroke-width: 0.000000; fill-type: evenodd"  fill-opacity="1.000000" />
   <path d="M 982.11 814.175 982.11 814.175 982.11 826.53 982.11 826.53 982.11 826.53 982.11 826.53 982.11 828.207 17.8903 828.207 17.8903 826.53 17.8902 826.53 17.8902 826.53 17.8903 826.53 17.8903 814.175 17.8904 814.175 17.8904 805.53 982.11 805.53 z" style="fill: none; stroke: black; stroke-width: 2.000000; fill-type: evenodd"  fill-opacity="1.000000" />
   <path d="M 982.11 805.53 17.8904 805.53 17.8904 793.176 982.11 793.176 z " style="fill: lightblue; stroke: black; stroke-width: 0.000000; fill-type: evenodd"  fill-opacity="1.000000" />
   <path d="M 982.11 805.53 17.8904 805.53 17.8904 793.176 982.11 793.176 z" style="fill: none; stroke: black; stroke-width: 2.000000; fill-type: evenodd"  fill-opacity="1.000000" />
   <path d="M 982.11 706.824 17.8904 706.824 17.8904 694.47 982.11 694.47 z " style="fill: lightblue; stroke: black; stroke-width: 0.000000; fill-type: evenodd"  fill-opacity="1.000000" />
   <path d="M 982.11 706.824 17.8904 706.824 17.8904 694.47 982.11 694.47 z" style="fill: none; stroke: black; stroke-width: 2.000000; fill-type: evenodd"  fill-opacity="1.000000" />
   <path d="M 982.11 673.47 982.11 673.47 982.11 673.47 982.11 673.47 982.11 685.825 982.11 685.825 982.11 694.47 17.8904 694.47 17.8904 685.825 17.8903 685.825 17.8903 673.47 17.8902 673.47 17.8902 673.47 17.8903 673.47 17.8903 671.793 982.11 671.793 z " style="fill: lightblue; stroke: black; stroke-width: 0.000000; fill-type: evenodd"  fill-opacity="1.000000" />
   <path d="M 982.11 673.47 982.11 673.47 982.11 673.47 982.11 673.47 982.11 685.825 982.11 685.825 982.11 694.47 17.8904 694.47 17.8904 685.825 17.8903 685.825 17.8903 673.47 17.8902 673.47 17.8902 673.47 17.8903 673.47 17.8903 671.793 982.11 671.793 z" style="fill: none; stroke: black; stroke-width: 2.000000; fill-type: evenodd"  fill-opacity="1.000000" />
   <path d="M 982.11 314.175 982.11 314.175 982.11 326.53 982.11 326.53 982.11 326.53 982.11 326.53 982.11 328.207 17.8903 328.207 17.8903 326.53 17.8902 326.53 17.8902 326.53 17.8903 326.53 17.8903 314.175 17.8904 314.175 17.8904 305.53 982.11 305.53 z " style="fill: lightblue; stroke: black; stroke-width: 0.000000; fill-type: evenodd"  fill-opacity="1.000000" />
   <path d="M 982.11 314.175 982.11 314.175 982.11 326.53 982.11 326.53 982.11 326.53 982.11 326.53 982.11 328.207 17.8903 328.207 17.8903 326.53 17.8902 326.53 17.8902 326.53 17.8903 326.53 17.8903 314.175 17.8904 314.175 17.8904 305.53 982.11 305.53 z" style="fill: none; stroke: black; stroke-width: 2.000000; fill-type: evenodd"  fill-opacity="1.000000" />
   <path d="M 982.11 305.53 17.8904 305.53 17.8904 293.176 982.11 293.176 z " style="fill: lightblue; stroke: black; stroke-width: 0.000000; fill-type: evenodd"  fill-opacity="1.000000" />
   <path d="M 982.11 305.53 17.8904 305.53 17.8904 293.176 982.11 293.176 z" style="fill: none; stroke: black; stroke-width: 2.000000; fill-type: evenodd"  fill-opacity="1.000000" />
   <path d="M 982.11 206.824 17.8904 206.824 17.8904 194.47 982.11 194.47 z " style="fill: lightblue; stroke: black; stroke-width: 0.000000; fill-type: evenodd"  fill-opacity="1.000000" />
   <path d="M 982.11 206.824 17.8904 206.824 17.8904 194.47 982.11 194.47 z" style="fill: none; stroke: black; stroke-width: 2.000000; fill-type: evenodd"  fill-opacity="1.000000" />
   <path d="M 982.11 173.47 982.11 173.47 982.11 173.47 982.11 173.47 982.11 185.825 982.11 185.825 982.11 194.47 17.8904 194.47 17.8904 185.825 17.8903 185.825 17.8903 173.47 17.8902 173.47 17.8902 173.47 17.8903 173.47 17.8903 171.793 982.11 171.793 z " style="fill: lightblue; stroke: black; stroke-width: 0.000000; fill-type: evenodd"  fill-opacity="1.000000" />
   <path d="M 982.11 173.47 982.11 173.47 982.11 173.47 982.11 173.47 982.11 185.825 982.11 185.825 982.11 194.47 17.8904 194.47 17.8904 185.825 17.8903 185.825 17.8903 173.47 17.8902 173.47 17.8902 173.47 17.8903 173.47 17.8903 171.793 982.11 171.793 z" style="fill: none; stroke: black; stroke-width: 2.000000; fill-type: evenodd"  fill-opacity="1.000000" />
</svg>
