solid Onshape
  facet normal 5.5441e-18 -0.0199747 0.9998
    outer loop
      vertex 0 -2.77556e-14 3.5
      vertex 100 0 3.5
      vertex -1.15895e-15 4.17555 3.58342
    endloop
  endfacet
  facet normal 0 -0.0199747 0.9998
    outer loop
      vertex 100 0 3.5
      vertex 100 4.17555 3.58342
      vertex -1.15895e-15 4.17555 3.58342
    endloop
  endfacet
  facet normal 0 -0.0598923 0.998205
    outer loop
      vertex -1.15895e-15 4.17555 3.58342
      vertex 100 4.17555 3.58342
      vertex -2.31605e-15 8.34443 3.83356
    endloop
  endfacet
  facet normal 0 -0.0598923 0.998205
    outer loop
      vertex 100 4.17555 3.58342
      vertex 100 8.34443 3.83356
      vertex -2.31605e-15 8.34443 3.83356
    endloop
  endfacet
  facet normal 0 -0.0997143 0.995016
    outer loop
      vertex -2.31605e-15 8.34443 3.83356
      vertex 100 8.34443 3.83356
      vertex 0 12.5 4.25
    endloop
  endfacet
  facet normal 0 -0.0997143 0.995016
    outer loop
      vertex 100 8.34443 3.83356
      vertex 100 12.5 4.25
      vertex 0 12.5 4.25
    endloop
  endfacet
  facet normal 0 0.0997143 0.995016
    outer loop
      vertex 0 87.5 4.25
      vertex 100 87.5 4.25
      vertex -1.1534e-15 91.6556 3.83356
    endloop
  endfacet
  facet normal 0 0.0997143 0.995016
    outer loop
      vertex 100 87.5 4.25
      vertex 100 91.6556 3.83356
      vertex -1.1534e-15 91.6556 3.83356
    endloop
  endfacet
  facet normal 0 0.0598923 0.998205
    outer loop
      vertex -1.1534e-15 91.6556 3.83356
      vertex 100 91.6556 3.83356
      vertex -2.3105e-15 95.8245 3.58342
    endloop
  endfacet
  facet normal 0 0.0598923 0.998205
    outer loop
      vertex 100 91.6556 3.83356
      vertex 100 95.8245 3.58342
      vertex -2.3105e-15 95.8245 3.58342
    endloop
  endfacet
  facet normal 0 0.0199747 0.9998
    outer loop
      vertex -2.3105e-15 95.8245 3.58342
      vertex 100 95.8245 3.58342
      vertex 0 100 3.5
    endloop
  endfacet
  facet normal 0 0.0199747 0.9998
    outer loop
      vertex 100 95.8245 3.58342
      vertex 100 100 3.5
      vertex 0 100 3.5
    endloop
  endfacet
  facet normal 0 -0.0997142 0.995016
    outer loop
      vertex 0 62.5 4.25
      vertex 100 62.5 4.25
      vertex 100 66.6556 4.66644
    endloop
  endfacet
  facet normal 0 -0.0997142 0.995016
    outer loop
      vertex 0 62.5 4.25
      vertex 100 66.6556 4.66644
      vertex 5.78549e-15 66.6556 4.66644
    endloop
  endfacet
  facet normal 0 -0.0598923 0.998205
    outer loop
      vertex 100 66.6556 4.66644
      vertex 100 70.8245 4.91658
      vertex 5.78549e-15 66.6556 4.66644
    endloop
  endfacet
  facet normal 0 -0.0598923 0.998205
    outer loop
      vertex 5.78549e-15 66.6556 4.66644
      vertex 100 70.8245 4.91658
      vertex 4.62839e-15 70.8245 4.91658
    endloop
  endfacet
  facet normal 0 -0.0199747 0.9998
    outer loop
      vertex 100 70.8245 4.91658
      vertex 100 75 5
      vertex 4.62839e-15 70.8245 4.91658
    endloop
  endfacet
  facet normal 0 -0.0199747 0.9998
    outer loop
      vertex 4.62839e-15 70.8245 4.91658
      vertex 100 75 5
      vertex 3.46945e-15 75 5
    endloop
  endfacet
  facet normal 0 0.0199747 0.9998
    outer loop
      vertex 100 75 5
      vertex 100 79.1755 4.91658
      vertex 3.46945e-15 75 5
    endloop
  endfacet
  facet normal 0 0.0199747 0.9998
    outer loop
      vertex 3.46945e-15 75 5
      vertex 100 79.1755 4.91658
      vertex 2.3105e-15 79.1755 4.91658
    endloop
  endfacet
  facet normal 0 0.0598923 0.998205
    outer loop
      vertex 100 79.1755 4.91658
      vertex 100 83.3444 4.66644
      vertex 2.3105e-15 79.1755 4.91658
    endloop
  endfacet
  facet normal 0 0.0598923 0.998205
    outer loop
      vertex 2.3105e-15 79.1755 4.91658
      vertex 100 83.3444 4.66644
      vertex 1.1534e-15 83.3444 4.66644
    endloop
  endfacet
  facet normal 0 0.0997142 0.995016
    outer loop
      vertex 100 83.3444 4.66644
      vertex 100 87.5 4.25
      vertex 1.1534e-15 83.3444 4.66644
    endloop
  endfacet
  facet normal 0 0.0997142 0.995016
    outer loop
      vertex 1.1534e-15 83.3444 4.66644
      vertex 100 87.5 4.25
      vertex 0 87.5 4.25
    endloop
  endfacet
  facet normal 0 0.0997144 0.995016
    outer loop
      vertex 0 37.5 4.25
      vertex 100 37.5 4.25
      vertex -1.1534e-15 41.6556 3.83356
    endloop
  endfacet
  facet normal 0 0.0997144 0.995016
    outer loop
      vertex 100 37.5 4.25
      vertex 100 41.6556 3.83356
      vertex -1.1534e-15 41.6556 3.83356
    endloop
  endfacet
  facet normal 0 0.0598922 0.998205
    outer loop
      vertex -1.1534e-15 41.6556 3.83356
      vertex 100 41.6556 3.83356
      vertex -2.3105e-15 45.8245 3.58342
    endloop
  endfacet
  facet normal 0 0.0598922 0.998205
    outer loop
      vertex 100 41.6556 3.83356
      vertex 100 45.8245 3.58342
      vertex -2.3105e-15 45.8245 3.58342
    endloop
  endfacet
  facet normal 0 0.0199747 0.9998
    outer loop
      vertex -2.3105e-15 45.8245 3.58342
      vertex 100 45.8245 3.58342
      vertex -3.46945e-15 50 3.5
    endloop
  endfacet
  facet normal 0 0.0199747 0.9998
    outer loop
      vertex 100 45.8245 3.58342
      vertex 100 50 3.5
      vertex -3.46945e-15 50 3.5
    endloop
  endfacet
  facet normal 0 -0.0199747 0.9998
    outer loop
      vertex -3.46945e-15 50 3.5
      vertex 100 50 3.5
      vertex -4.62839e-15 54.1755 3.58342
    endloop
  endfacet
  facet normal 0 -0.0199747 0.9998
    outer loop
      vertex 100 50 3.5
      vertex 100 54.1755 3.58342
      vertex -4.62839e-15 54.1755 3.58342
    endloop
  endfacet
  facet normal 0 -0.0598923 0.998205
    outer loop
      vertex -4.62839e-15 54.1755 3.58342
      vertex 100 54.1755 3.58342
      vertex -5.78549e-15 58.3444 3.83356
    endloop
  endfacet
  facet normal 0 -0.0598923 0.998205
    outer loop
      vertex 100 54.1755 3.58342
      vertex 100 58.3444 3.83356
      vertex -5.78549e-15 58.3444 3.83356
    endloop
  endfacet
  facet normal 0 -0.0997143 0.995016
    outer loop
      vertex -5.78549e-15 58.3444 3.83356
      vertex 100 58.3444 3.83356
      vertex 0 62.5 4.25
    endloop
  endfacet
  facet normal 0 -0.0997143 0.995016
    outer loop
      vertex 100 58.3444 3.83356
      vertex 100 62.5 4.25
      vertex 0 62.5 4.25
    endloop
  endfacet
  facet normal 0 1 0
    outer loop
      vertex 100 100 3.5
      vertex 100 100 0
      vertex 0 100 3.5
    endloop
  endfacet
  facet normal 0 1 0
    outer loop
      vertex 100 100 0
      vertex 0 100 0
      vertex 0 100 3.5
    endloop
  endfacet
  facet normal 0 -1 -7.93016e-15
    outer loop
      vertex 0 0 0
      vertex 100 0 0
      vertex 0 -2.77556e-14 3.5
    endloop
  endfacet
  facet normal 2.77556e-16 -1 0
    outer loop
      vertex 100 0 0
      vertex 100 0 3.5
      vertex 0 -2.77556e-14 3.5
    endloop
  endfacet
  facet normal 0 0 -1
    outer loop
      vertex 100 100 0
      vertex 100 0 0
      vertex 0 100 0
    endloop
  endfacet
  facet normal 0 0 -1
    outer loop
      vertex 100 0 0
      vertex 0 0 0
      vertex 0 100 0
    endloop
  endfacet
  facet normal -1 -2.77556e-16 -2.20106e-30
    outer loop
      vertex 0 0 0
      vertex 0 -2.77556e-14 3.5
      vertex -1.15895e-15 4.17555 3.58342
    endloop
  endfacet
  facet normal -1 5.5334e-16 0
    outer loop
      vertex 0 100 3.5
      vertex 0 100 0
      vertex -2.3105e-15 95.8245 3.58342
    endloop
  endfacet
  facet normal -1 -3.40014e-16 -1.04097e-15
    outer loop
      vertex 0 100 0
      vertex -1.1534e-15 91.6556 3.83356
      vertex -2.3105e-15 95.8245 3.58342
    endloop
  endfacet
  facet normal -1 7.3888e-16 6.51953e-15
    outer loop
      vertex -5.78549e-15 58.3444 3.83356
      vertex 0 62.5 4.25
      vertex 0 100 0
    endloop
  endfacet
  facet normal -1 7.3888e-16 6.51953e-15
    outer loop
      vertex 0 62.5 4.25
      vertex 5.78549e-15 66.6556 4.66644
      vertex 0 100 0
    endloop
  endfacet
  facet normal -1 -1.78943e-16 1.64354e-15
    outer loop
      vertex -1.1534e-15 41.6556 3.83356
      vertex -2.3105e-15 45.8245 3.58342
      vertex 0 0 0
    endloop
  endfacet
  facet normal -1 -2.31335e-16 2.31351e-15
    outer loop
      vertex -2.3105e-15 45.8245 3.58342
      vertex -3.46945e-15 50 3.5
      vertex 0 0 0
    endloop
  endfacet
  facet normal -1 0 -9.91271e-16
    outer loop
      vertex 0 0 0
      vertex -3.46945e-15 50 3.5
      vertex 0 100 0
    endloop
  endfacet
  facet normal -1 -2.00521e-16 -3.85585e-15
    outer loop
      vertex -3.46945e-15 50 3.5
      vertex -4.62839e-15 54.1755 3.58342
      vertex 0 100 0
    endloop
  endfacet
  facet normal -1 -1.13202e-16 -2.73923e-15
    outer loop
      vertex 0 100 0
      vertex -4.62839e-15 54.1755 3.58342
      vertex -5.78549e-15 58.3444 3.83356
    endloop
  endfacet
  facet normal -1 -2.77556e-16 -7.76577e-23
    outer loop
      vertex -1.15895e-15 4.17555 3.58342
      vertex -2.31605e-15 8.34443 3.83356
      vertex 0 0 0
    endloop
  endfacet
  facet normal -1 7.90263e-16 -2.3243e-15
    outer loop
      vertex -2.31605e-15 8.34443 3.83356
      vertex 0 12.5 4.25
      vertex 0 0 0
    endloop
  endfacet
  facet normal -1 1.97408e-15 -5.80612e-15
    outer loop
      vertex 0 0 0
      vertex 0 12.5 4.25
      vertex 5.78549e-15 16.6556 4.66644
    endloop
  endfacet
  facet normal -1 -3.34322e-16 -9.46099e-16
    outer loop
      vertex 2.3105e-15 79.1755 4.91658
      vertex 1.1534e-15 83.3444 4.66644
      vertex 0 100 0
    endloop
  endfacet
  facet normal -1 -3.93554e-16 -1.15751e-15
    outer loop
      vertex 1.1534e-15 83.3444 4.66644
      vertex 0 87.5 4.25
      vertex 0 100 0
    endloop
  endfacet
  facet normal -1 -3.93554e-16 -1.15751e-15
    outer loop
      vertex 0 100 0
      vertex 0 87.5 4.25
      vertex -1.1534e-15 91.6556 3.83356
    endloop
  endfacet
  facet normal -1 -2.46333e-16 -5.20383e-16
    outer loop
      vertex 5.78549e-15 66.6556 4.66644
      vertex 4.62839e-15 70.8245 4.91658
      vertex 0 100 0
    endloop
  endfacet
  facet normal -1 -2.64952e-16 -6.30869e-16
    outer loop
      vertex 4.62839e-15 70.8245 4.91658
      vertex 3.46945e-15 75 5
      vertex 0 100 0
    endloop
  endfacet
  facet normal -1 -2.92958e-16 -7.70898e-16
    outer loop
      vertex 0 100 0
      vertex 3.46945e-15 75 5
      vertex 2.3105e-15 79.1755 4.91658
    endloop
  endfacet
  facet normal -1 -1.83887e-16 1.56115e-15
    outer loop
      vertex 2.3105e-15 29.1755 4.91658
      vertex 1.1534e-15 33.3444 4.66644
      vertex 0 0 0
    endloop
  endfacet
  facet normal -1 -1.47304e-16 1.29974e-15
    outer loop
      vertex 1.1534e-15 33.3444 4.66644
      vertex 0 37.5 4.25
      vertex 0 0 0
    endloop
  endfacet
  facet normal -1 -1.47304e-16 1.29974e-15
    outer loop
      vertex 0 0 0
      vertex 0 37.5 4.25
      vertex -1.1534e-15 41.6556 3.83356
    endloop
  endfacet
  facet normal -1 -4.47854e-16 2.83829e-15
    outer loop
      vertex 5.78549e-15 16.6556 4.66644
      vertex 4.62839e-15 20.8245 4.91658
      vertex 0 0 0
    endloop
  endfacet
  facet normal -1 -3.2376e-16 2.31269e-15
    outer loop
      vertex 4.62839e-15 20.8245 4.91658
      vertex 3.46945e-15 25 5
      vertex 0 0 0
    endloop
  endfacet
  facet normal -1 -2.39744e-16 1.89261e-15
    outer loop
      vertex 0 0 0
      vertex 3.46945e-15 25 5
      vertex 2.3105e-15 29.1755 4.91658
    endloop
  endfacet
  facet normal 0 -0.0997142 0.995016
    outer loop
      vertex 0 12.5 4.25
      vertex 100 12.5 4.25
      vertex 100 16.6556 4.66644
    endloop
  endfacet
  facet normal 0 -0.0997142 0.995016
    outer loop
      vertex 0 12.5 4.25
      vertex 100 16.6556 4.66644
      vertex 5.78549e-15 16.6556 4.66644
    endloop
  endfacet
  facet normal 0 -0.0598923 0.998205
    outer loop
      vertex 100 16.6556 4.66644
      vertex 100 20.8245 4.91658
      vertex 5.78549e-15 16.6556 4.66644
    endloop
  endfacet
  facet normal 0 -0.0598923 0.998205
    outer loop
      vertex 5.78549e-15 16.6556 4.66644
      vertex 100 20.8245 4.91658
      vertex 4.62839e-15 20.8245 4.91658
    endloop
  endfacet
  facet normal 0 -0.0199747 0.9998
    outer loop
      vertex 100 20.8245 4.91658
      vertex 100 25 5
      vertex 4.62839e-15 20.8245 4.91658
    endloop
  endfacet
  facet normal 0 -0.0199747 0.9998
    outer loop
      vertex 4.62839e-15 20.8245 4.91658
      vertex 100 25 5
      vertex 3.46945e-15 25 5
    endloop
  endfacet
  facet normal 0 0.0199747 0.9998
    outer loop
      vertex 100 25 5
      vertex 100 29.1755 4.91658
      vertex 3.46945e-15 25 5
    endloop
  endfacet
  facet normal 0 0.0199747 0.9998
    outer loop
      vertex 3.46945e-15 25 5
      vertex 100 29.1755 4.91658
      vertex 2.3105e-15 29.1755 4.91658
    endloop
  endfacet
  facet normal 0 0.0598923 0.998205
    outer loop
      vertex 100 29.1755 4.91658
      vertex 100 33.3444 4.66644
      vertex 2.3105e-15 29.1755 4.91658
    endloop
  endfacet
  facet normal 0 0.0598923 0.998205
    outer loop
      vertex 2.3105e-15 29.1755 4.91658
      vertex 100 33.3444 4.66644
      vertex 1.1534e-15 33.3444 4.66644
    endloop
  endfacet
  facet normal 0 0.0997142 0.995016
    outer loop
      vertex 100 33.3444 4.66644
      vertex 100 37.5 4.25
      vertex 1.1534e-15 33.3444 4.66644
    endloop
  endfacet
  facet normal 0 0.0997142 0.995016
    outer loop
      vertex 1.1534e-15 33.3444 4.66644
      vertex 100 37.5 4.25
      vertex 0 37.5 4.25
    endloop
  endfacet
  facet normal 1 0 0
    outer loop
      vertex 100 62.5 4.25
      vertex 100 58.3444 3.83356
      vertex 100 100 0
    endloop
  endfacet
  facet normal 1 0 0
    outer loop
      vertex 100 100 3.5
      vertex 100 95.8245 3.58342
      vertex 100 100 0
    endloop
  endfacet
  facet normal 1 0 0
    outer loop
      vertex 100 95.8245 3.58342
      vertex 100 91.6556 3.83356
      vertex 100 100 0
    endloop
  endfacet
  facet normal 1 0 0
    outer loop
      vertex 100 100 0
      vertex 100 91.6556 3.83356
      vertex 100 87.5 4.25
    endloop
  endfacet
  facet normal 1 0 0
    outer loop
      vertex 100 12.5 4.25
      vertex 100 8.34443 3.83356
      vertex 100 0 0
    endloop
  endfacet
  facet normal 1 0 0
    outer loop
      vertex 100 8.34443 3.83356
      vertex 100 4.17555 3.58342
      vertex 100 0 0
    endloop
  endfacet
  facet normal 1 0 0
    outer loop
      vertex 100 0 0
      vertex 100 4.17555 3.58342
      vertex 100 0 3.5
    endloop
  endfacet
  facet normal 1 0 0
    outer loop
      vertex 100 58.3444 3.83356
      vertex 100 54.1755 3.58342
      vertex 100 100 0
    endloop
  endfacet
  facet normal 1 0 0
    outer loop
      vertex 100 54.1755 3.58342
      vertex 100 50 3.5
      vertex 100 100 0
    endloop
  endfacet
  facet normal 1 0 0
    outer loop
      vertex 100 100 0
      vertex 100 50 3.5
      vertex 100 0 0
    endloop
  endfacet
  facet normal 1 0 0
    outer loop
      vertex 100 87.5 4.25
      vertex 100 83.3444 4.66644
      vertex 100 100 0
    endloop
  endfacet
  facet normal 1 0 0
    outer loop
      vertex 100 83.3444 4.66644
      vertex 100 79.1755 4.91658
      vertex 100 100 0
    endloop
  endfacet
  facet normal 1 0 0
    outer loop
      vertex 100 100 0
      vertex 100 79.1755 4.91658
      vertex 100 75 5
    endloop
  endfacet
  facet normal 1 0 0
    outer loop
      vertex 100 50 3.5
      vertex 100 45.8245 3.58342
      vertex 100 0 0
    endloop
  endfacet
  facet normal 1 0 0
    outer loop
      vertex 100 45.8245 3.58342
      vertex 100 41.6556 3.83356
      vertex 100 0 0
    endloop
  endfacet
  facet normal 1 0 0
    outer loop
      vertex 100 0 0
      vertex 100 41.6556 3.83356
      vertex 100 37.5 4.25
    endloop
  endfacet
  facet normal 1 0 0
    outer loop
      vertex 100 75 5
      vertex 100 70.8245 4.91658
      vertex 100 100 0
    endloop
  endfacet
  facet normal 1 0 0
    outer loop
      vertex 100 70.8245 4.91658
      vertex 100 66.6556 4.66644
      vertex 100 100 0
    endloop
  endfacet
  facet normal 1 0 0
    outer loop
      vertex 100 100 0
      vertex 100 66.6556 4.66644
      vertex 100 62.5 4.25
    endloop
  endfacet
  facet normal 1 0 0
    outer loop
      vertex 100 37.5 4.25
      vertex 100 33.3444 4.66644
      vertex 100 0 0
    endloop
  endfacet
  facet normal 1 0 0
    outer loop
      vertex 100 33.3444 4.66644
      vertex 100 29.1755 4.91658
      vertex 100 0 0
    endloop
  endfacet
  facet normal 1 0 0
    outer loop
      vertex 100 0 0
      vertex 100 29.1755 4.91658
      vertex 100 25 5
    endloop
  endfacet
  facet normal 1 0 0
    outer loop
      vertex 100 25 5
      vertex 100 20.8245 4.91658
      vertex 100 0 0
    endloop
  endfacet
  facet normal 1 0 0
    outer loop
      vertex 100 20.8245 4.91658
      vertex 100 16.6556 4.66644
      vertex 100 0 0
    endloop
  endfacet
  facet normal 1 0 0
    outer loop
      vertex 100 0 0
      vertex 100 16.6556 4.66644
      vertex 100 12.5 4.25
    endloop
  endfacet
endsolid Onshape
